<?xml version="1.0" encoding="utf-8"?>
<!-- Generator: Adobe Illustrator 15.1.0, SVG Export Plug-In . SVG Version: 6.00 Build 0)  -->
<!DOCTYPE svg PUBLIC "-//W3C//DTD SVG 1.1//EN" "http://www.w3.org/Graphics/SVG/1.1/DTD/svg11.dtd">
<svg version="1.1" id="Layer_1" xmlns="http://www.w3.org/2000/svg" xmlns:xlink="http://www.w3.org/1999/xlink" x="0px" y="0px"
	 width="504px" height="144px" viewBox="0 0 504 144" enable-background="new 0 0 504 144" xml:space="preserve">
<g>
	<path d="M78.391,71.227c0-19.377,7.102-36.021,21.309-49.929C113.845,7.39,130.845,0.436,150.697,0.436
		c19.615,0,36.435,7.014,50.463,21.041c14.087,14.028,21.13,30.879,21.13,50.552c0,19.793-7.074,36.585-21.219,50.374
		c-14.207,13.851-31.354,20.773-51.444,20.773c-17.773,0-33.732-6.151-47.877-18.455C86.177,111.11,78.391,93.278,78.391,71.227z
		 M99.343,71.449c0,15.204,5.111,27.704,15.335,37.503c10.164,9.799,21.902,14.698,35.217,14.698
		c14.443,0,26.627-4.988,36.554-14.966c9.926-10.094,14.89-22.388,14.89-36.879c0-14.668-4.904-26.96-14.711-36.879
		c-9.749-9.978-21.814-14.966-36.198-14.966c-14.325,0-26.421,4.988-36.287,14.966C104.275,44.785,99.343,56.96,99.343,71.449z"/>
	<path fill="#010101" d="M150.839,10.364c34.275,0,62.061,27.786,62.061,62.062c0,34.276-27.786,62.062-62.061,62.062
		c-34.276,0-62.062-27.785-62.062-62.062C88.778,38.15,116.563,10.364,150.839,10.364"/>
	<path fill="#FFFFFF" d="M150.87,21.771c27.825,0,50.382,22.557,50.382,50.382s-22.557,50.382-50.382,50.382
		c-27.826,0-50.382-22.557-50.382-50.382S123.044,21.771,150.87,21.771"/>
	<path fill="#17170D" d="M129.083,47.642c9.871,0,17.872,8.002,17.872,17.872s-8.001,17.872-17.872,17.872
		s-17.872-8.002-17.872-17.872S119.212,47.642,129.083,47.642"/>
	<circle fill="#17170D" cx="171.635" cy="65.174" r="17.872"/>
	<circle fill="#17170D" cx="151.04" cy="111.678" r="6.138"/>
	<rect x="140.811" y="104.177" fill="#FFFFFF" width="21.14" height="7.16"/>
	<ellipse fill="#17170D" cx="151.04" cy="101.599" rx="3.745" ry="6.639"/>
	<line fill="#FFFFFF" x1="146.444" y1="82.705" x2="146.444" y2="82.705"/>
	<path fill="#716D67" d="M146.916,64.326c0.025,0.392,0.039,0.789,0.039,1.188c0,2.235-0.411,4.375-1.16,6.348l-0.101,10.836
		l0.75,0.007l0.75,0.007l0.17-18.382L146.916,64.326"/>
	<path fill="#17170D" d="M145.864,64.316l-0.07,7.545c0.75-1.973,1.16-4.113,1.16-6.348c0-0.399-0.013-0.795-0.039-1.188
		L145.864,64.316"/>
	<polyline fill="#17170D" points="153.763,82.856 153.763,65.665 171.464,83.026 	"/>
	<line fill="none" stroke="#17170D" stroke-width="2" x1="151.04" y1="105.173" x2="151.04" y2="113.71"/>
	<polyline fill="#17170D" points="146.803,83.386 129.612,83.386 146.973,65.685 	"/>
	<ellipse fill="#F57F20" cx="129.083" cy="65.514" rx="6.979" ry="6.808"/>
	<ellipse fill="none" stroke="#17170D" stroke-width="1.5" cx="129.083" cy="65.514" rx="6.979" ry="6.808"/>
	<ellipse fill="#F57F20" cx="171.635" cy="65.173" rx="6.979" ry="6.808"/>
	<ellipse fill="none" stroke="#17170D" stroke-width="1.5" cx="171.635" cy="65.173" rx="6.979" ry="6.808"/>
	<circle fill="#17170D" cx="129.083" cy="65.514" r="1.872"/>
	<circle fill="#17170D" cx="171.635" cy="65.173" r="1.873"/>
	<circle fill="#FFFFFF" cx="186.613" cy="38.281" r="7.66"/>
	<circle fill="#FFFFFF" cx="114.444" cy="38.281" r="7.66"/>
	<polygon points="30.691,3.021 30.691,121.154 71.169,121.154 71.169,140.68 9.918,140.68 9.918,3.021 	"/>
	<path d="M295.043,82.014l42.617,58.666h-25.409l-39.319-56.348h-3.744v56.348h-20.773V3.021h24.34
		c18.188,0,31.323,3.419,39.407,10.253c8.916,7.609,13.374,17.653,13.374,30.136c0,9.749-2.795,18.13-8.381,25.143
		C311.566,75.565,304.196,80.053,295.043,82.014z M269.188,66.233h6.598c19.673,0,29.512-7.519,29.512-22.557
		c0-14.087-9.571-21.131-28.709-21.131h-7.4V66.233z"/>
	<rect x="358.345" y="3.021" width="20.773" height="137.659"/>
	<path d="M490.03,23.438l-16.851,9.986c-3.151-5.469-6.151-9.034-9.005-10.699c-2.973-1.901-6.807-2.854-11.501-2.854
		c-5.766,0-10.552,1.638-14.354,4.908c-3.805,3.213-5.706,7.257-5.706,12.134c0,6.722,4.993,12.134,14.979,16.237l13.73,5.621
		c11.174,4.522,19.347,10.039,24.518,16.552c5.172,6.514,7.757,14.499,7.757,23.955c0,12.67-4.221,23.14-12.66,31.407
		c-8.501,8.328-19.051,12.49-31.65,12.49c-11.947,0-21.814-3.552-29.601-10.658c-7.668-7.1-12.453-17.069-14.354-29.908
		l21.041-4.636c0.95,8.084,2.615,13.672,4.993,16.762c4.279,5.943,10.521,8.915,18.723,8.915c6.479,0,11.858-2.167,16.138-6.503
		c4.279-4.335,6.419-9.829,6.419-16.482c0-2.672-0.371-5.123-1.114-7.351c-0.744-2.228-1.902-4.276-3.477-6.147
		c-1.576-1.871-3.611-3.623-6.107-5.256c-2.497-1.633-5.47-3.193-8.916-4.678l-13.284-5.523
		c-18.843-7.959-28.263-19.602-28.263-34.925c0-10.334,3.952-18.977,11.857-25.926c7.904-7.009,17.742-10.514,29.511-10.514
		C468.722,0.346,481.115,8.044,490.03,23.438z"/>
</g>
</svg>
