<?xml version="1.0" encoding="utf-8"?>
<!-- Generator: Adobe Illustrator 15.1.0, SVG Export Plug-In . SVG Version: 6.00 Build 0)  -->
<!DOCTYPE svg PUBLIC "-//W3C//DTD SVG 1.1//EN" "http://www.w3.org/Graphics/SVG/1.1/DTD/svg11.dtd">
<svg version="1.1" id="Layer_1" xmlns="http://www.w3.org/2000/svg" xmlns:xlink="http://www.w3.org/1999/xlink" x="0px" y="0px"
	 width="380px" height="380px" viewBox="0 0 380 380" enable-background="new 0 0 380 380" xml:space="preserve">
<title>Layer 1</title>
<g>
	<path d="M190.439,6.515c100.686,0,182.309,81.623,182.309,182.309s-81.623,182.308-182.309,182.308S8.13,289.51,8.13,188.824
		S89.753,6.515,190.439,6.515"/>
	<path fill="#FFFFFF" d="M190.527,40.021c81.738,0,148,66.262,148,148c0,81.737-66.262,148-148,148s-148-66.263-148-148
		C42.527,106.282,108.789,40.021,190.527,40.021"/>
	<path fill="#0F0F00" d="M126.527,116.021c28.995,0,52.5,23.505,52.5,52.5s-23.505,52.5-52.5,52.5c-28.995,0-52.5-23.505-52.5-52.5
		S97.532,116.021,126.527,116.021"/>
	<circle fill="#0F0F00" cx="251.527" cy="167.521" r="52.5"/>
	<circle fill="#0F0F00" cx="191.027" cy="304.13" r="18.029"/>
	<rect x="160.979" y="282.095" fill="#FFFFFF" width="62.101" height="21.034"/>
	<ellipse fill="#0F0F00" cx="191.027" cy="274.521" rx="11" ry="19.5"/>
	<line fill="#FFFFFF" x1="177.527" y1="219.021" x2="177.527" y2="219.021"/>
	<path fill="#87877F" d="M178.689,174.509c-0.314,2.772-0.846,5.479-1.575,8.104l-0.337,36.401l0.75,0.007l0.75,0.007
		L178.689,174.509"/>
	<path fill="#0F0F00" d="M177.277,165.014l-0.163,17.599c0.729-2.624,1.261-5.332,1.575-8.104l0.088-9.481L177.277,165.014"/>
	<polyline fill="#0F0F00" points="199.027,219.465 199.027,168.965 251.027,219.965 	"/>
	<line fill="none" stroke="#0F0F00" stroke-width="4.5" x1="191.027" y1="285.021" x2="191.027" y2="310.101"/>
	<polyline fill="#0F0F00" points="178.583,221.021 128.083,221.021 179.083,169.021 	"/>
	<ellipse fill="#FF7F00" cx="126.527" cy="168.521" rx="20.5" ry="20"/>
	<ellipse fill="none" stroke="#0F0F00" stroke-width="1.5" cx="126.527" cy="168.521" rx="20.5" ry="20"/>
	<ellipse fill="#FF7F00" cx="251.527" cy="167.521" rx="20.5" ry="20"/>
	<ellipse fill="none" stroke="#0F0F00" stroke-width="1.5" cx="251.527" cy="167.521" rx="20.5" ry="20"/>
	<circle fill="#0F0F00" cx="126.527" cy="168.521" r="5.5"/>
	<circle fill="#0F0F00" cx="251.527" cy="167.521" r="5.5"/>
	<circle fill="#FFFFFF" cx="295.527" cy="88.521" r="22.5"/>
	<circle fill="#FFFFFF" cx="83.527" cy="88.521" r="22.5"/>
</g>
</svg>
